0
SECTION
2
HEADER
9
$ACADVER
1
AC1021
9
$INSUNITS
70
4
9
$MEASUREMENT
70
1
9
$DWGCODEPAGE
3
ANSI_1252
9
$EXTMIN
10
0.00
20
-1500.00
30
0.0
9
$EXTMAX
10
12330.00
20
11040.00
30
0.0
0
ENDSEC
0
SECTION
2
TABLES
0
TABLE
2
LTYPE
70
1
0
LTYPE
2
CONTINUOUS
70
64
3
Solid line
72
65
73
0
40
0.0
0
ENDTAB
0
TABLE
2
LAYER
70
12
0
LAYER
2
WALL
70
0
62
7
6
CONTINUOUS
0
LAYER
2
WALL-LOW
70
0
62
8
6
CONTINUOUS
0
LAYER
2
DOOR
70
0
62
3
6
CONTINUOUS
0
LAYER
2
WIN
70
0
62
4
6
CONTINUOUS
0
LAYER
2
SLIDE
70
0
62
4
6
CONTINUOUS
0
LAYER
2
GLASS
70
0
62
5
6
CONTINUOUS
0
LAYER
2
FURN
70
0
62
8
6
CONTINUOUS
0
LAYER
2
FURN-TXT
70
0
62
8
6
CONTINUOUS
0
LAYER
2
ROOM-TXT
70
0
62
2
6
CONTINUOUS
0
LAYER
2
DIM
70
0
62
1
6
CONTINUOUS
0
LAYER
2
IMAGE
70
0
62
6
6
CONTINUOUS
0
LAYER
2
TITLE
70
0
62
7
6
CONTINUOUS
0
ENDTAB
0
ENDSEC
0
SECTION
2
BLOCKS
0
ENDSEC
0
SECTION
2
ENTITIES
0
LINE
8
WALL
10
1820.00
20
11040.00
30
0.0
11
2360.00
21
11040.00
31
0.0
0
LINE
8
WALL
10
2360.00
20
11040.00
30
0.0
11
2360.00
21
10800.00
31
0.0
0
LINE
8
WALL
10
2360.00
20
10800.00
30
0.0
11
1820.00
21
10800.00
31
0.0
0
LINE
8
WALL
10
1820.00
20
10800.00
30
0.0
11
1820.00
21
11040.00
31
0.0
0
LINE
8
WALL
10
1820.00
20
10800.00
30
0.0
11
2060.00
21
10800.00
31
0.0
0
LINE
8
WALL
10
2060.00
20
10800.00
30
0.0
11
2060.00
21
10500.00
31
0.0
0
LINE
8
WALL
10
2060.00
20
10500.00
30
0.0
11
1820.00
21
10500.00
31
0.0
0
LINE
8
WALL
10
1820.00
20
10500.00
30
0.0
11
1820.00
21
10800.00
31
0.0
0
LINE
8
WALL
10
2360.00
20
11040.00
30
0.0
11
4820.00
21
11040.00
31
0.0
0
LINE
8
WALL
10
4820.00
20
11040.00
30
0.0
11
4820.00
21
10800.00
31
0.0
0
LINE
8
WALL
10
4820.00
20
10800.00
30
0.0
11
2360.00
21
10800.00
31
0.0
0
LINE
8
WALL
10
2360.00
20
10800.00
30
0.0
11
2360.00
21
11040.00
31
0.0
0
LINE
8
WALL
10
4820.00
20
11040.00
30
0.0
11
5380.00
21
11040.00
31
0.0
0
LINE
8
WALL
10
5380.00
20
11040.00
30
0.0
11
5380.00
21
10800.00
31
0.0
0
LINE
8
WALL
10
5380.00
20
10800.00
30
0.0
11
4820.00
21
10800.00
31
0.0
0
LINE
8
WALL
10
4820.00
20
10800.00
30
0.0
11
4820.00
21
11040.00
31
0.0
0
LINE
8
WALL
10
6000.00
20
11040.00
30
0.0
11
6290.00
21
11040.00
31
0.0
0
LINE
8
WALL
10
6290.00
20
11040.00
30
0.0
11
6290.00
21
10800.00
31
0.0
0
LINE
8
WALL
10
6290.00
20
10800.00
30
0.0
11
6000.00
21
10800.00
31
0.0
0
LINE
8
WALL
10
6000.00
20
10800.00
30
0.0
11
6000.00
21
11040.00
31
0.0
0
LINE
8
WALL
10
6290.00
20
11040.00
30
0.0
11
6840.00
21
11040.00
31
0.0
0
LINE
8
WALL
10
6840.00
20
11040.00
30
0.0
11
6840.00
21
10800.00
31
0.0
0
LINE
8
WALL
10
6840.00
20
10800.00
30
0.0
11
6290.00
21
10800.00
31
0.0
0
LINE
8
WALL
10
6290.00
20
10800.00
30
0.0
11
6290.00
21
11040.00
31
0.0
0
LINE
8
WALL
10
6600.00
20
10800.00
30
0.0
11
6840.00
21
10800.00
31
0.0
0
LINE
8
WALL
10
6840.00
20
10800.00
30
0.0
11
6840.00
21
10500.00
31
0.0
0
LINE
8
WALL
10
6840.00
20
10500.00
30
0.0
11
6600.00
21
10500.00
31
0.0
0
LINE
8
WALL
10
6600.00
20
10500.00
30
0.0
11
6600.00
21
10800.00
31
0.0
0
LINE
8
WALL
10
6840.00
20
11040.00
30
0.0
11
10200.00
21
11040.00
31
0.0
0
LINE
8
WALL
10
10200.00
20
11040.00
30
0.0
11
10200.00
21
10800.00
31
0.0
0
LINE
8
WALL
10
10200.00
20
10800.00
30
0.0
11
6840.00
21
10800.00
31
0.0
0
LINE
8
WALL
10
6840.00
20
10800.00
30
0.0
11
6840.00
21
11040.00
31
0.0
0
LINE
8
WALL
10
10200.00
20
11040.00
30
0.0
11
10750.00
21
11040.00
31
0.0
0
LINE
8
WALL
10
10750.00
20
11040.00
30
0.0
11
10750.00
21
10800.00
31
0.0
0
LINE
8
WALL
10
10750.00
20
10800.00
30
0.0
11
10200.00
21
10800.00
31
0.0
0
LINE
8
WALL
10
10200.00
20
10800.00
30
0.0
11
10200.00
21
11040.00
31
0.0
0
LINE
8
WALL
10
10510.00
20
10800.00
30
0.0
11
10750.00
21
10800.00
31
0.0
0
LINE
8
WALL
10
10750.00
20
10800.00
30
0.0
11
10750.00
21
10500.00
31
0.0
0
LINE
8
WALL
10
10750.00
20
10500.00
30
0.0
11
10510.00
21
10500.00
31
0.0
0
LINE
8
WALL
10
10510.00
20
10500.00
30
0.0
11
10510.00
21
10800.00
31
0.0
0
LINE
8
WALL
10
10510.00
20
10500.00
30
0.0
11
10750.00
21
10500.00
31
0.0
0
LINE
8
WALL
10
10750.00
20
10500.00
30
0.0
11
10750.00
21
10000.00
31
0.0
0
LINE
8
WALL
10
10750.00
20
10000.00
30
0.0
11
10510.00
21
10000.00
31
0.0
0
LINE
8
WALL
10
10510.00
20
10000.00
30
0.0
11
10510.00
21
10500.00
31
0.0
0
LINE
8
WALL
10
10510.00
20
8200.00
30
0.0
11
10750.00
21
8200.00
31
0.0
0
LINE
8
WALL
10
10750.00
20
8200.00
30
0.0
11
10750.00
21
7710.00
31
0.0
0
LINE
8
WALL
10
10750.00
20
7710.00
30
0.0
11
10510.00
21
7710.00
31
0.0
0
LINE
8
WALL
10
10510.00
20
7710.00
30
0.0
11
10510.00
21
8200.00
31
0.0
0
LINE
8
WALL
10
10510.00
20
7710.00
30
0.0
11
10750.00
21
7710.00
31
0.0
0
LINE
8
WALL
10
10750.00
20
7710.00
30
0.0
11
10750.00
21
6540.00
31
0.0
0
LINE
8
WALL
10
10750.00
20
6540.00
30
0.0
11
10510.00
21
6540.00
31
0.0
0
LINE
8
WALL
10
10510.00
20
6540.00
30
0.0
11
10510.00
21
7710.00
31
0.0
0
LINE
8
WALL
10
10510.00
20
5060.00
30
0.0
11
10750.00
21
5060.00
31
0.0
0
LINE
8
WALL
10
10750.00
20
5060.00
30
0.0
11
10750.00
21
4430.00
31
0.0
0
LINE
8
WALL
10
10750.00
20
4430.00
30
0.0
11
10510.00
21
4430.00
31
0.0
0
LINE
8
WALL
10
10510.00
20
4430.00
30
0.0
11
10510.00
21
5060.00
31
0.0
0
LINE
8
WALL
10
10200.00
20
4430.00
30
0.0
11
10750.00
21
4430.00
31
0.0
0
LINE
8
WALL
10
10750.00
20
4430.00
30
0.0
11
10750.00
21
4190.00
31
0.0
0
LINE
8
WALL
10
10750.00
20
4190.00
30
0.0
11
10200.00
21
4190.00
31
0.0
0
LINE
8
WALL
10
10200.00
20
4190.00
30
0.0
11
10200.00
21
4430.00
31
0.0
0
LINE
8
WALL
10
10510.00
20
4190.00
30
0.0
11
10750.00
21
4190.00
31
0.0
0
LINE
8
WALL
10
10750.00
20
4190.00
30
0.0
11
10750.00
21
3400.00
31
0.0
0
LINE
8
WALL
10
10750.00
20
3400.00
30
0.0
11
10510.00
21
3400.00
31
0.0
0
LINE
8
WALL
10
10510.00
20
3400.00
30
0.0
11
10510.00
21
4190.00
31
0.0
0
LINE
8
WALL
10
10510.00
20
1030.00
30
0.0
11
10750.00
21
1030.00
31
0.0
0
LINE
8
WALL
10
10750.00
20
1030.00
30
0.0
11
10750.00
21
240.00
31
0.0
0
LINE
8
WALL
10
10750.00
20
240.00
30
0.0
11
10510.00
21
240.00
31
0.0
0
LINE
8
WALL
10
10510.00
20
240.00
30
0.0
11
10510.00
21
1030.00
31
0.0
0
LINE
8
WALL
10
10200.00
20
240.00
30
0.0
11
10750.00
21
240.00
31
0.0
0
LINE
8
WALL
10
10750.00
20
240.00
30
0.0
11
10750.00
21
0.00
31
0.0
0
LINE
8
WALL
10
10750.00
20
0.00
30
0.0
11
10200.00
21
0.00
31
0.0
0
LINE
8
WALL
10
10200.00
20
0.00
30
0.0
11
10200.00
21
240.00
31
0.0
0
LINE
8
WALL
10
4820.00
20
240.00
30
0.0
11
10200.00
21
240.00
31
0.0
0
LINE
8
WALL
10
10200.00
20
240.00
30
0.0
11
10200.00
21
0.00
31
0.0
0
LINE
8
WALL
10
10200.00
20
0.00
30
0.0
11
4820.00
21
0.00
31
0.0
0
LINE
8
WALL
10
4820.00
20
0.00
30
0.0
11
4820.00
21
240.00
31
0.0
0
LINE
8
WALL
10
10750.00
20
240.00
30
0.0
11
12330.00
21
240.00
31
0.0
0
LINE
8
WALL
10
12330.00
20
240.00
30
0.0
11
12330.00
21
0.00
31
0.0
0
LINE
8
WALL
10
12330.00
20
0.00
30
0.0
11
10750.00
21
0.00
31
0.0
0
LINE
8
WALL
10
10750.00
20
0.00
30
0.0
11
10750.00
21
240.00
31
0.0
0
LINE
8
WALL
10
12090.00
20
840.00
30
0.0
11
12330.00
21
840.00
31
0.0
0
LINE
8
WALL
10
12330.00
20
840.00
30
0.0
11
12330.00
21
240.00
31
0.0
0
LINE
8
WALL
10
12330.00
20
240.00
30
0.0
11
12090.00
21
240.00
31
0.0
0
LINE
8
WALL
10
12090.00
20
240.00
30
0.0
11
12090.00
21
840.00
31
0.0
0
LINE
8
WALL
10
4820.00
20
1600.00
30
0.0
11
5060.00
21
1600.00
31
0.0
0
LINE
8
WALL
10
5060.00
20
1600.00
30
0.0
11
5060.00
21
240.00
31
0.0
0
LINE
8
WALL
10
5060.00
20
240.00
30
0.0
11
4820.00
21
240.00
31
0.0
0
LINE
8
WALL
10
4820.00
20
240.00
30
0.0
11
4820.00
21
1600.00
31
0.0
0
LINE
8
WALL
10
4820.00
20
2840.00
30
0.0
11
5060.00
21
2840.00
31
0.0
0
LINE
8
WALL
10
5060.00
20
2840.00
30
0.0
11
5060.00
21
2490.00
31
0.0
0
LINE
8
WALL
10
5060.00
20
2490.00
30
0.0
11
4820.00
21
2490.00
31
0.0
0
LINE
8
WALL
10
4820.00
20
2490.00
30
0.0
11
4820.00
21
2840.00
31
0.0
0
LINE
8
WALL
10
3860.00
20
2840.00
30
0.0
11
4820.00
21
2840.00
31
0.0
0
LINE
8
WALL
10
4820.00
20
2840.00
30
0.0
11
4820.00
21
2600.00
31
0.0
0
LINE
8
WALL
10
4820.00
20
2600.00
30
0.0
11
3860.00
21
2600.00
31
0.0
0
LINE
8
WALL
10
3860.00
20
2600.00
30
0.0
11
3860.00
21
2840.00
31
0.0
0
LINE
8
WALL
10
2420.00
20
2840.00
30
0.0
11
3860.00
21
2840.00
31
0.0
0
LINE
8
WALL
10
3860.00
20
2840.00
30
0.0
11
3860.00
21
2600.00
31
0.0
0
LINE
8
WALL
10
3860.00
20
2600.00
30
0.0
11
2420.00
21
2600.00
31
0.0
0
LINE
8
WALL
10
2420.00
20
2600.00
30
0.0
11
2420.00
21
2840.00
31
0.0
0
LINE
8
WALL
10
2420.00
20
3210.00
30
0.0
11
2660.00
21
3210.00
31
0.0
0
LINE
8
WALL
10
2660.00
20
3210.00
30
0.0
11
2660.00
21
2840.00
31
0.0
0
LINE
8
WALL
10
2660.00
20
2840.00
30
0.0
11
2420.00
21
2840.00
31
0.0
0
LINE
8
WALL
10
2420.00
20
2840.00
30
0.0
11
2420.00
21
3210.00
31
0.0
0
LINE
8
WALL
10
2420.00
20
3400.00
30
0.0
11
2660.00
21
3400.00
31
0.0
0
LINE
8
WALL
10
2660.00
20
3400.00
30
0.0
11
2660.00
21
3210.00
31
0.0
0
LINE
8
WALL
10
2660.00
20
3210.00
30
0.0
11
2420.00
21
3210.00
31
0.0
0
LINE
8
WALL
10
2420.00
20
3210.00
30
0.0
11
2420.00
21
3400.00
31
0.0
0
LINE
8
WALL
10
0.00
20
2840.00
30
0.0
11
2420.00
21
2840.00
31
0.0
0
LINE
8
WALL
10
2420.00
20
2840.00
30
0.0
11
2420.00
21
2600.00
31
0.0
0
LINE
8
WALL
10
2420.00
20
2600.00
30
0.0
11
0.00
21
2600.00
31
0.0
0
LINE
8
WALL
10
0.00
20
2600.00
30
0.0
11
0.00
21
2840.00
31
0.0
0
LINE
8
WALL
10
0.00
20
7190.00
30
0.0
11
240.00
21
7190.00
31
0.0
0
LINE
8
WALL
10
240.00
20
7190.00
30
0.0
11
240.00
21
2840.00
31
0.0
0
LINE
8
WALL
10
240.00
20
2840.00
30
0.0
11
0.00
21
2840.00
31
0.0
0
LINE
8
WALL
10
0.00
20
2840.00
30
0.0
11
0.00
21
7190.00
31
0.0
0
LINE
8
WALL
10
240.00
20
5850.00
30
0.0
11
440.00
21
5850.00
31
0.0
0
LINE
8
WALL
10
440.00
20
5850.00
30
0.0
11
440.00
21
5610.00
31
0.0
0
LINE
8
WALL
10
440.00
20
5610.00
30
0.0
11
240.00
21
5610.00
31
0.0
0
LINE
8
WALL
10
240.00
20
5610.00
30
0.0
11
240.00
21
5850.00
31
0.0
0
LINE
8
WALL-LOW
10
440.00
20
5850.00
30
0.0
11
1515.00
21
5850.00
31
0.0
0
LINE
8
WALL-LOW
10
1515.00
20
5850.00
30
0.0
11
1515.00
21
5610.00
31
0.0
0
LINE
8
WALL-LOW
10
1515.00
20
5610.00
30
0.0
11
440.00
21
5610.00
31
0.0
0
LINE
8
WALL-LOW
10
440.00
20
5610.00
30
0.0
11
440.00
21
5850.00
31
0.0
0
LINE
8
WALL
10
1820.00
20
7430.00
30
0.0
11
2660.00
21
7430.00
31
0.0
0
LINE
8
WALL
10
2660.00
20
7430.00
30
0.0
11
2660.00
21
6975.00
31
0.0
0
LINE
8
WALL
10
2660.00
20
6975.00
30
0.0
11
1820.00
21
6975.00
31
0.0
0
LINE
8
WALL
10
1820.00
20
6975.00
30
0.0
11
1820.00
21
7430.00
31
0.0
0
LINE
8
WALL
10
2420.00
20
6370.00
30
0.0
11
2660.00
21
6370.00
31
0.0
0
LINE
8
WALL
10
2660.00
20
6370.00
30
0.0
11
2660.00
21
5004.00
31
0.0
0
LINE
8
WALL
10
2660.00
20
5004.00
30
0.0
11
2420.00
21
5004.00
31
0.0
0
LINE
8
WALL
10
2420.00
20
5004.00
30
0.0
11
2420.00
21
6370.00
31
0.0
0
LINE
8
WALL
10
2330.00
20
5850.00
30
0.0
11
2420.00
21
5850.00
31
0.0
0
LINE
8
WALL
10
2420.00
20
5850.00
30
0.0
11
2420.00
21
5610.00
31
0.0
0
LINE
8
WALL
10
2420.00
20
5610.00
30
0.0
11
2330.00
21
5610.00
31
0.0
0
LINE
8
WALL
10
2330.00
20
5610.00
30
0.0
11
2330.00
21
5850.00
31
0.0
0
LINE
8
WALL
10
2660.00
20
5850.00
30
0.0
11
4820.00
21
5850.00
31
0.0
0
LINE
8
WALL
10
4820.00
20
5850.00
30
0.0
11
4820.00
21
5610.00
31
0.0
0
LINE
8
WALL
10
4820.00
20
5610.00
30
0.0
11
2660.00
21
5610.00
31
0.0
0
LINE
8
WALL
10
2660.00
20
5610.00
30
0.0
11
2660.00
21
5850.00
31
0.0
0
LINE
8
WALL
10
4820.00
20
7520.00
30
0.0
11
5060.00
21
7520.00
31
0.0
0
LINE
8
WALL
10
5060.00
20
7520.00
30
0.0
11
5060.00
21
6725.00
31
0.0
0
LINE
8
WALL
10
5060.00
20
6725.00
30
0.0
11
4820.00
21
6725.00
31
0.0
0
LINE
8
WALL
10
4820.00
20
6725.00
30
0.0
11
4820.00
21
7520.00
31
0.0
0
LINE
8
WALL
10
4820.00
20
5940.00
30
0.0
11
5060.00
21
5940.00
31
0.0
0
LINE
8
WALL
10
5060.00
20
5940.00
30
0.0
11
5060.00
21
5610.00
31
0.0
0
LINE
8
WALL
10
5060.00
20
5610.00
30
0.0
11
4820.00
21
5610.00
31
0.0
0
LINE
8
WALL
10
4820.00
20
5610.00
30
0.0
11
4820.00
21
5940.00
31
0.0
0
LINE
8
WALL
10
2660.00
20
7430.00
30
0.0
11
4820.00
21
7430.00
31
0.0
0
LINE
8
WALL
10
4820.00
20
7430.00
30
0.0
11
4820.00
21
7190.00
31
0.0
0
LINE
8
WALL
10
4820.00
20
7190.00
30
0.0
11
2660.00
21
7190.00
31
0.0
0
LINE
8
WALL
10
2660.00
20
7190.00
30
0.0
11
2660.00
21
7430.00
31
0.0
0
LINE
8
WALL
10
4820.00
20
10800.00
30
0.0
11
5060.00
21
10800.00
31
0.0
0
LINE
8
WALL
10
5060.00
20
10800.00
30
0.0
11
5060.00
21
8400.00
31
0.0
0
LINE
8
WALL
10
5060.00
20
8400.00
30
0.0
11
4820.00
21
8400.00
31
0.0
0
LINE
8
WALL
10
4820.00
20
8400.00
30
0.0
11
4820.00
21
10800.00
31
0.0
0
LINE
8
WALL
10
5060.00
20
8720.00
30
0.0
11
6600.00
21
8720.00
31
0.0
0
LINE
8
WALL
10
6600.00
20
8720.00
30
0.0
11
6600.00
21
8480.00
31
0.0
0
LINE
8
WALL
10
6600.00
20
8480.00
30
0.0
11
5060.00
21
8480.00
31
0.0
0
LINE
8
WALL
10
5060.00
20
8480.00
30
0.0
11
5060.00
21
8720.00
31
0.0
0
LINE
8
WALL
10
6600.00
20
10500.00
30
0.0
11
6840.00
21
10500.00
31
0.0
0
LINE
8
WALL
10
6840.00
20
10500.00
30
0.0
11
6840.00
21
9602.00
31
0.0
0
LINE
8
WALL
10
6840.00
20
9602.00
30
0.0
11
6600.00
21
9602.00
31
0.0
0
LINE
8
WALL
10
6600.00
20
9602.00
30
0.0
11
6600.00
21
10500.00
31
0.0
0
LINE
8
WALL
10
6600.00
20
8817.00
30
0.0
11
6840.00
21
8817.00
31
0.0
0
LINE
8
WALL
10
6840.00
20
8817.00
30
0.0
11
6840.00
21
8400.00
31
0.0
0
LINE
8
WALL
10
6840.00
20
8400.00
30
0.0
11
6600.00
21
8400.00
31
0.0
0
LINE
8
WALL
10
6600.00
20
8400.00
30
0.0
11
6600.00
21
8817.00
31
0.0
0
LINE
8
WALL
10
6323.00
20
7430.00
30
0.0
11
6840.00
21
7430.00
31
0.0
0
LINE
8
WALL
10
6840.00
20
7430.00
30
0.0
11
6840.00
21
7093.00
31
0.0
0
LINE
8
WALL
10
6840.00
20
7093.00
30
0.0
11
6323.00
21
7093.00
31
0.0
0
LINE
8
WALL
10
6323.00
20
7093.00
30
0.0
11
6323.00
21
7430.00
31
0.0
0
LINE
8
WALL
10
6600.00
20
7520.00
30
0.0
11
6840.00
21
7520.00
31
0.0
0
LINE
8
WALL
10
6840.00
20
7520.00
30
0.0
11
6840.00
21
7430.00
31
0.0
0
LINE
8
WALL
10
6840.00
20
7430.00
30
0.0
11
6600.00
21
7430.00
31
0.0
0
LINE
8
WALL
10
6600.00
20
7430.00
30
0.0
11
6600.00
21
7520.00
31
0.0
0
LINE
8
WALL
10
6840.00
20
7430.00
30
0.0
11
10200.00
21
7430.00
31
0.0
0
LINE
8
WALL
10
10200.00
20
7430.00
30
0.0
11
10200.00
21
7190.00
31
0.0
0
LINE
8
WALL
10
10200.00
20
7190.00
30
0.0
11
6840.00
21
7190.00
31
0.0
0
LINE
8
WALL
10
6840.00
20
7190.00
30
0.0
11
6840.00
21
7430.00
31
0.0
0
LINE
8
WALL
10
10200.00
20
7430.00
30
0.0
11
10510.00
21
7430.00
31
0.0
0
LINE
8
WALL
10
10510.00
20
7430.00
30
0.0
11
10510.00
21
7190.00
31
0.0
0
LINE
8
WALL
10
10510.00
20
7190.00
30
0.0
11
10200.00
21
7190.00
31
0.0
0
LINE
8
WALL
10
10200.00
20
7190.00
30
0.0
11
10200.00
21
7430.00
31
0.0
0
LINE
8
WALL
10
6323.00
20
6200.00
30
0.0
11
6563.00
21
6200.00
31
0.0
0
LINE
8
WALL
10
6563.00
20
6200.00
30
0.0
11
6563.00
21
4190.00
31
0.0
0
LINE
8
WALL
10
6563.00
20
4190.00
30
0.0
11
6323.00
21
4190.00
31
0.0
0
LINE
8
WALL
10
6323.00
20
4190.00
30
0.0
11
6323.00
21
6200.00
31
0.0
0
LINE
8
WALL
10
6563.00
20
4430.00
30
0.0
11
10200.00
21
4430.00
31
0.0
0
LINE
8
WALL
10
10200.00
20
4430.00
30
0.0
11
10200.00
21
4190.00
31
0.0
0
LINE
8
WALL
10
10200.00
20
4190.00
30
0.0
11
6563.00
21
4190.00
31
0.0
0
LINE
8
WALL
10
6563.00
20
4190.00
30
0.0
11
6563.00
21
4430.00
31
0.0
0
LINE
8
WIN
10
5380.00
20
11040.00
30
0.0
11
6000.00
21
11040.00
31
0.0
0
LINE
8
WIN
10
6000.00
20
11040.00
30
0.0
11
6000.00
21
10800.00
31
0.0
0
LINE
8
WIN
10
6000.00
20
10800.00
30
0.0
11
5380.00
21
10800.00
31
0.0
0
LINE
8
WIN
10
5380.00
20
10800.00
30
0.0
11
5380.00
21
11040.00
31
0.0
0
LINE
8
GLASS
10
5380.00
20
10920.00
30
0.0
11
6000.00
21
10920.00
31
0.0
0
LINE
8
WIN
10
1820.00
20
10500.00
30
0.0
11
2060.00
21
10500.00
31
0.0
0
LINE
8
WIN
10
2060.00
20
10500.00
30
0.0
11
2060.00
21
7430.00
31
0.0
0
LINE
8
WIN
10
2060.00
20
7430.00
30
0.0
11
1820.00
21
7430.00
31
0.0
0
LINE
8
WIN
10
1820.00
20
7430.00
30
0.0
11
1820.00
21
10500.00
31
0.0
0
LINE
8
GLASS
10
1940.00
20
10500.00
30
0.0
11
1940.00
21
7430.00
31
0.0
0
LINE
8
WIN
10
0.00
20
7430.00
30
0.0
11
1820.00
21
7430.00
31
0.0
0
LINE
8
WIN
10
1820.00
20
7430.00
30
0.0
11
1820.00
21
7190.00
31
0.0
0
LINE
8
WIN
10
1820.00
20
7190.00
30
0.0
11
0.00
21
7190.00
31
0.0
0
LINE
8
WIN
10
0.00
20
7190.00
30
0.0
11
0.00
21
7430.00
31
0.0
0
LINE
8
GLASS
10
0.00
20
7310.00
30
0.0
11
1820.00
21
7310.00
31
0.0
0
LINE
8
WIN
10
2420.00
20
6975.00
30
0.0
11
2660.00
21
6975.00
31
0.0
0
LINE
8
WIN
10
2660.00
20
6975.00
30
0.0
11
2660.00
21
6370.00
31
0.0
0
LINE
8
WIN
10
2660.00
20
6370.00
30
0.0
11
2420.00
21
6370.00
31
0.0
0
LINE
8
WIN
10
2420.00
20
6370.00
30
0.0
11
2420.00
21
6975.00
31
0.0
0
LINE
8
GLASS
10
2540.00
20
6975.00
30
0.0
11
2540.00
21
6370.00
31
0.0
0
LINE
8
WIN
10
10750.00
20
4430.00
30
0.0
11
12330.00
21
4430.00
31
0.0
0
LINE
8
WIN
10
12330.00
20
4430.00
30
0.0
11
12330.00
21
4190.00
31
0.0
0
LINE
8
WIN
10
12330.00
20
4190.00
30
0.0
11
10750.00
21
4190.00
31
0.0
0
LINE
8
WIN
10
10750.00
20
4190.00
30
0.0
11
10750.00
21
4430.00
31
0.0
0
LINE
8
GLASS
10
10750.00
20
4310.00
30
0.0
11
12330.00
21
4310.00
31
0.0
0
LINE
8
WIN
10
12090.00
20
4190.00
30
0.0
11
12330.00
21
4190.00
31
0.0
0
LINE
8
WIN
10
12330.00
20
4190.00
30
0.0
11
12330.00
21
840.00
31
0.0
0
LINE
8
WIN
10
12330.00
20
840.00
30
0.0
11
12090.00
21
840.00
31
0.0
0
LINE
8
WIN
10
12090.00
20
840.00
30
0.0
11
12090.00
21
4190.00
31
0.0
0
LINE
8
GLASS
10
12210.00
20
4190.00
30
0.0
11
12210.00
21
840.00
31
0.0
0
LINE
8
WIN
10
10750.00
20
10140.00
30
0.0
11
11370.00
21
10140.00
31
0.0
0
LINE
8
WIN
10
11370.00
20
10140.00
30
0.0
11
11370.00
21
10040.00
31
0.0
0
LINE
8
WIN
10
11370.00
20
10040.00
30
0.0
11
10750.00
21
10040.00
31
0.0
0
LINE
8
WIN
10
10750.00
20
10040.00
30
0.0
11
10750.00
21
10140.00
31
0.0
0
LINE
8
GLASS
10
10750.00
20
10090.00
30
0.0
11
11370.00
21
10090.00
31
0.0
0
LINE
8
WIN
10
11270.00
20
10040.00
30
0.0
11
11370.00
21
10040.00
31
0.0
0
LINE
8
WIN
10
11370.00
20
10040.00
30
0.0
11
11370.00
21
8150.00
31
0.0
0
LINE
8
WIN
10
11370.00
20
8150.00
30
0.0
11
11270.00
21
8150.00
31
0.0
0
LINE
8
WIN
10
11270.00
20
8150.00
30
0.0
11
11270.00
21
10040.00
31
0.0
0
LINE
8
GLASS
10
11320.00
20
10040.00
30
0.0
11
11320.00
21
8150.00
31
0.0
0
LINE
8
WIN
10
10750.00
20
8150.00
30
0.0
11
11370.00
21
8150.00
31
0.0
0
LINE
8
WIN
10
11370.00
20
8150.00
30
0.0
11
11370.00
21
8050.00
31
0.0
0
LINE
8
WIN
10
11370.00
20
8050.00
30
0.0
11
10750.00
21
8050.00
31
0.0
0
LINE
8
WIN
10
10750.00
20
8050.00
30
0.0
11
10750.00
21
8150.00
31
0.0
0
LINE
8
GLASS
10
10750.00
20
8100.00
30
0.0
11
11370.00
21
8100.00
31
0.0
0
LINE
8
WIN
10
10750.00
20
6690.00
30
0.0
11
11370.00
21
6690.00
31
0.0
0
LINE
8
WIN
10
11370.00
20
6690.00
30
0.0
11
11370.00
21
6590.00
31
0.0
0
LINE
8
WIN
10
11370.00
20
6590.00
30
0.0
11
10750.00
21
6590.00
31
0.0
0
LINE
8
WIN
10
10750.00
20
6590.00
30
0.0
11
10750.00
21
6690.00
31
0.0
0
LINE
8
GLASS
10
10750.00
20
6640.00
30
0.0
11
11370.00
21
6640.00
31
0.0
0
LINE
8
WIN
10
11270.00
20
6590.00
30
0.0
11
11370.00
21
6590.00
31
0.0
0
LINE
8
WIN
10
11370.00
20
6590.00
30
0.0
11
11370.00
21
5015.00
31
0.0
0
LINE
8
WIN
10
11370.00
20
5015.00
30
0.0
11
11270.00
21
5015.00
31
0.0
0
LINE
8
WIN
10
11270.00
20
5015.00
30
0.0
11
11270.00
21
6590.00
31
0.0
0
LINE
8
GLASS
10
11320.00
20
6590.00
30
0.0
11
11320.00
21
5015.00
31
0.0
0
LINE
8
WIN
10
10750.00
20
5015.00
30
0.0
11
11370.00
21
5015.00
31
0.0
0
LINE
8
WIN
10
11370.00
20
5015.00
30
0.0
11
11370.00
21
4915.00
31
0.0
0
LINE
8
WIN
10
11370.00
20
4915.00
30
0.0
11
10750.00
21
4915.00
31
0.0
0
LINE
8
WIN
10
10750.00
20
4915.00
30
0.0
11
10750.00
21
5015.00
31
0.0
0
LINE
8
GLASS
10
10750.00
20
4965.00
30
0.0
11
11370.00
21
4965.00
31
0.0
0
LINE
8
DOOR
10
4820.00
20
8400.00
30
0.0
11
5060.00
21
8400.00
31
0.0
0
LINE
8
DOOR
10
5060.00
20
8400.00
30
0.0
11
5060.00
21
7520.00
31
0.0
0
LINE
8
DOOR
10
5060.00
20
7520.00
30
0.0
11
4820.00
21
7520.00
31
0.0
0
LINE
8
DOOR
10
4820.00
20
7520.00
30
0.0
11
4820.00
21
8400.00
31
0.0
0
LINE
8
DOOR
10
4820.00
20
7520.00
30
0.0
11
3940.00
21
7520.00
31
0.0
0
ARC
8
DOOR
10
4820.00
20
7520.00
30
0.0
40
880.00
50
90.00
51
180.00
0
LINE
8
DOOR
10
6600.00
20
8400.00
30
0.0
11
6840.00
21
8400.00
31
0.0
0
LINE
8
DOOR
10
6840.00
20
8400.00
30
0.0
11
6840.00
21
7520.00
31
0.0
0
LINE
8
DOOR
10
6840.00
20
7520.00
30
0.0
11
6600.00
21
7520.00
31
0.0
0
LINE
8
DOOR
10
6600.00
20
7520.00
30
0.0
11
6600.00
21
8400.00
31
0.0
0
LINE
8
DOOR
10
6840.00
20
7520.00
30
0.0
11
7720.00
21
7520.00
31
0.0
0
ARC
8
DOOR
10
6840.00
20
7520.00
30
0.0
40
880.00
50
0.00
51
90.00
0
LINE
8
DOOR
10
6600.00
20
9602.00
30
0.0
11
6840.00
21
9602.00
31
0.0
0
LINE
8
DOOR
10
6840.00
20
9602.00
30
0.0
11
6840.00
21
8817.00
31
0.0
0
LINE
8
DOOR
10
6840.00
20
8817.00
30
0.0
11
6600.00
21
8817.00
31
0.0
0
LINE
8
DOOR
10
6600.00
20
8817.00
30
0.0
11
6600.00
21
9602.00
31
0.0
0
LINE
8
DOOR
10
6600.00
20
9602.00
30
0.0
11
5815.00
21
9602.00
31
0.0
0
ARC
8
DOOR
10
6600.00
20
9602.00
30
0.0
40
785.00
50
180.00
51
270.00
0
LINE
8
DOOR
10
4820.00
20
6725.00
30
0.0
11
5060.00
21
6725.00
31
0.0
0
LINE
8
DOOR
10
5060.00
20
6725.00
30
0.0
11
5060.00
21
5940.00
31
0.0
0
LINE
8
DOOR
10
5060.00
20
5940.00
30
0.0
11
4820.00
21
5940.00
31
0.0
0
LINE
8
DOOR
10
4820.00
20
5940.00
30
0.0
11
4820.00
21
6725.00
31
0.0
0
LINE
8
DOOR
10
4820.00
20
5940.00
30
0.0
11
4035.00
21
5940.00
31
0.0
0
ARC
8
DOOR
10
4820.00
20
5940.00
30
0.0
40
785.00
50
90.00
51
180.00
0
LINE
8
DOOR
10
6323.00
20
7093.00
30
0.0
11
6563.00
21
7093.00
31
0.0
0
LINE
8
DOOR
10
6563.00
20
7093.00
30
0.0
11
6563.00
21
6200.00
31
0.0
0
LINE
8
DOOR
10
6563.00
20
6200.00
30
0.0
11
6323.00
21
6200.00
31
0.0
0
LINE
8
DOOR
10
6323.00
20
6200.00
30
0.0
11
6323.00
21
7093.00
31
0.0
0
LINE
8
DOOR
10
6563.00
20
6200.00
30
0.0
11
7456.00
21
6200.00
31
0.0
0
ARC
8
DOOR
10
6563.00
20
6200.00
30
0.0
40
893.00
50
0.00
51
90.00
0
LINE
8
DOOR
10
4820.00
20
2490.00
30
0.0
11
5060.00
21
2490.00
31
0.0
0
LINE
8
DOOR
10
5060.00
20
2490.00
30
0.0
11
5060.00
21
1600.00
31
0.0
0
LINE
8
DOOR
10
5060.00
20
1600.00
30
0.0
11
4820.00
21
1600.00
31
0.0
0
LINE
8
DOOR
10
4820.00
20
1600.00
30
0.0
11
4820.00
21
2490.00
31
0.0
0
LINE
8
DOOR
10
5060.00
20
1600.00
30
0.0
11
5950.00
21
1600.00
31
0.0
0
ARC
8
DOOR
10
5060.00
20
1600.00
30
0.0
40
890.00
50
0.00
51
90.00
0
LINE
8
SLIDE
10
10510.00
20
3400.00
30
0.0
11
10750.00
21
3400.00
31
0.0
0
LINE
8
SLIDE
10
10750.00
20
3400.00
30
0.0
11
10750.00
21
1030.00
31
0.0
0
LINE
8
SLIDE
10
10750.00
20
1030.00
30
0.0
11
10510.00
21
1030.00
31
0.0
0
LINE
8
SLIDE
10
10510.00
20
1030.00
30
0.0
11
10510.00
21
3400.00
31
0.0
0
LINE
8
GLASS
10
10585.00
20
3400.00
30
0.0
11
10585.00
21
2215.00
31
0.0
0
LINE
8
GLASS
10
10675.00
20
2215.00
30
0.0
11
10675.00
21
1030.00
31
0.0
0
LINE
8
SLIDE
10
1515.00
20
5850.00
30
0.0
11
2330.00
21
5850.00
31
0.0
0
LINE
8
SLIDE
10
2330.00
20
5850.00
30
0.0
11
2330.00
21
5610.00
31
0.0
0
LINE
8
SLIDE
10
2330.00
20
5610.00
30
0.0
11
1515.00
21
5610.00
31
0.0
0
LINE
8
SLIDE
10
1515.00
20
5610.00
30
0.0
11
1515.00
21
5850.00
31
0.0
0
LINE
8
GLASS
10
1515.00
20
5775.00
30
0.0
11
1922.50
21
5775.00
31
0.0
0
LINE
8
GLASS
10
1922.50
20
5685.00
30
0.0
11
2330.00
21
5685.00
31
0.0
0
LINE
8
FURN
10
6305.00
20
8780.00
30
0.0
11
5355.00
21
8780.00
31
0.0
0
LINE
8
FURN
10
5355.00
20
8780.00
30
0.0
11
5355.00
21
9730.00
31
0.0
0
LINE
8
FURN
10
5355.00
20
9730.00
30
0.0
11
6305.00
21
9730.00
31
0.0
0
LINE
8
FURN
10
6305.00
20
9730.00
30
0.0
11
6305.00
21
8780.00
31
0.0
0
TEXT
8
FURN-TXT
10
5830.00
20
9255.00
30
0.0
40
130.00
1
淋浴房
50
0.0
72
1
73
2
11
5830.00
21
9255.00
31
0.0
0
LINE
8
FURN
10
5120.00
20
9550.00
30
0.0
11
5120.00
21
9970.00
31
0.0
0
LINE
8
FURN
10
5120.00
20
9970.00
30
0.0
11
5820.00
21
9970.00
31
0.0
0
LINE
8
FURN
10
5820.00
20
9970.00
30
0.0
11
5820.00
21
9550.00
31
0.0
0
LINE
8
FURN
10
5820.00
20
9550.00
30
0.0
11
5120.00
21
9550.00
31
0.0
0
TEXT
8
FURN-TXT
10
5470.00
20
9760.00
30
0.0
40
130.00
1
马桶
50
0.0
72
1
73
2
11
5470.00
21
9760.00
31
0.0
0
LINE
8
FURN
10
6540.00
20
10260.00
30
0.0
11
6540.00
21
9260.00
31
0.0
0
LINE
8
FURN
10
6540.00
20
9260.00
30
0.0
11
6040.00
21
9260.00
31
0.0
0
LINE
8
FURN
10
6040.00
20
9260.00
30
0.0
11
6040.00
21
10260.00
31
0.0
0
LINE
8
FURN
10
6040.00
20
10260.00
30
0.0
11
6540.00
21
10260.00
31
0.0
0
TEXT
8
FURN-TXT
10
6290.00
20
9760.00
30
0.0
40
130.00
1
浴室柜
50
0.0
72
1
73
2
11
6290.00
21
9760.00
31
0.0
0
LINE
8
FURN
10
2690.00
20
10740.00
30
0.0
11
4190.00
21
10740.00
31
0.0
0
LINE
8
FURN
10
4190.00
20
10740.00
30
0.0
11
4190.00
21
8690.00
31
0.0
0
LINE
8
FURN
10
4190.00
20
8690.00
30
0.0
11
2690.00
21
8690.00
31
0.0
0
LINE
8
FURN
10
2690.00
20
8690.00
30
0.0
11
2690.00
21
10740.00
31
0.0
0
TEXT
8
FURN-TXT
10
3440.00
20
9715.00
30
0.0
40
130.00
1
双人床
50
0.0
72
1
73
2
11
3440.00
21
9715.00
31
0.0
0
LINE
8
FURN
10
4670.00
20
7490.00
30
0.0
11
2210.00
21
7490.00
31
0.0
0
LINE
8
FURN
10
2210.00
20
7490.00
30
0.0
11
2210.00
21
8090.00
31
0.0
0
LINE
8
FURN
10
2210.00
20
8090.00
30
0.0
11
4670.00
21
8090.00
31
0.0
0
LINE
8
FURN
10
4670.00
20
8090.00
30
0.0
11
4670.00
21
7490.00
31
0.0
0
TEXT
8
FURN-TXT
10
3440.00
20
7790.00
30
0.0
40
130.00
1
衣柜
50
0.0
72
1
73
2
11
3440.00
21
7790.00
31
0.0
0
LINE
8
FURN
10
3265.00
20
7130.00
30
0.0
11
4215.00
21
7130.00
31
0.0
0
LINE
8
FURN
10
4215.00
20
7130.00
30
0.0
11
4215.00
21
6180.00
31
0.0
0
LINE
8
FURN
10
4215.00
20
6180.00
30
0.0
11
3265.00
21
6180.00
31
0.0
0
LINE
8
FURN
10
3265.00
20
6180.00
30
0.0
11
3265.00
21
7130.00
31
0.0
0
TEXT
8
FURN-TXT
10
3740.00
20
6655.00
30
0.0
40
130.00
1
淋浴房
50
0.0
72
1
73
2
11
3740.00
21
6655.00
31
0.0
0
LINE
8
FURN
10
3950.00
20
5910.00
30
0.0
11
3530.00
21
5910.00
31
0.0
0
LINE
8
FURN
10
3530.00
20
5910.00
30
0.0
11
3530.00
21
6610.00
31
0.0
0
LINE
8
FURN
10
3530.00
20
6610.00
30
0.0
11
3950.00
21
6610.00
31
0.0
0
LINE
8
FURN
10
3950.00
20
6610.00
30
0.0
11
3950.00
21
5910.00
31
0.0
0
TEXT
8
FURN-TXT
10
3740.00
20
6260.00
30
0.0
40
130.00
1
马桶
50
0.0
72
1
73
2
11
3740.00
21
6260.00
31
0.0
0
LINE
8
FURN
10
2720.00
20
6020.00
30
0.0
11
2720.00
21
7020.00
31
0.0
0
LINE
8
FURN
10
2720.00
20
7020.00
30
0.0
11
3220.00
21
7020.00
31
0.0
0
LINE
8
FURN
10
3220.00
20
7020.00
30
0.0
11
3220.00
21
6020.00
31
0.0
0
LINE
8
FURN
10
3220.00
20
6020.00
30
0.0
11
2720.00
21
6020.00
31
0.0
0
TEXT
8
FURN-TXT
10
2970.00
20
6520.00
30
0.0
40
130.00
1
浴室柜
50
0.0
72
1
73
2
11
2970.00
21
6520.00
31
0.0
0
LINE
8
FURN
10
300.00
20
6220.00
30
0.0
11
300.00
21
6820.00
31
0.0
0
LINE
8
FURN
10
300.00
20
6820.00
30
0.0
11
900.00
21
6820.00
31
0.0
0
LINE
8
FURN
10
900.00
20
6820.00
30
0.0
11
900.00
21
6220.00
31
0.0
0
LINE
8
FURN
10
900.00
20
6220.00
30
0.0
11
300.00
21
6220.00
31
0.0
0
TEXT
8
FURN-TXT
10
600.00
20
6520.00
30
0.0
40
130.00
1
洗衣机
50
0.0
72
1
73
2
11
600.00
21
6520.00
31
0.0
0
LINE
8
FURN
10
1730.00
20
5910.00
30
0.0
11
930.00
21
5910.00
31
0.0
0
LINE
8
FURN
10
930.00
20
5910.00
30
0.0
11
930.00
21
6410.00
31
0.0
0
LINE
8
FURN
10
930.00
20
6410.00
30
0.0
11
1730.00
21
6410.00
31
0.0
0
LINE
8
FURN
10
1730.00
20
6410.00
30
0.0
11
1730.00
21
5910.00
31
0.0
0
TEXT
8
FURN-TXT
10
1330.00
20
6160.00
30
0.0
40
130.00
1
洗手池
50
0.0
72
1
73
2
11
1330.00
21
6160.00
31
0.0
0
LINE
8
FURN
10
2360.00
20
6970.00
30
0.0
11
2360.00
21
6070.00
31
0.0
0
LINE
8
FURN
10
2360.00
20
6070.00
30
0.0
11
1960.00
21
6070.00
31
0.0
0
LINE
8
FURN
10
1960.00
20
6070.00
30
0.0
11
1960.00
21
6970.00
31
0.0
0
LINE
8
FURN
10
1960.00
20
6970.00
30
0.0
11
2360.00
21
6970.00
31
0.0
0
TEXT
8
FURN-TXT
10
2160.00
20
6520.00
30
0.0
40
130.00
1
储物柜
50
0.0
72
1
73
2
11
2160.00
21
6520.00
31
0.0
0
LINE
8
FURN
10
7637.00
20
7130.00
30
0.0
11
9437.00
21
7130.00
31
0.0
0
LINE
8
FURN
10
9437.00
20
7130.00
30
0.0
11
9437.00
21
5080.00
31
0.0
0
LINE
8
FURN
10
9437.00
20
5080.00
30
0.0
11
7637.00
21
5080.00
31
0.0
0
LINE
8
FURN
10
7637.00
20
5080.00
30
0.0
11
7637.00
21
7130.00
31
0.0
0
TEXT
8
FURN-TXT
10
8537.00
20
6105.00
30
0.0
40
130.00
1
双人床
50
0.0
72
1
73
2
11
8537.00
21
6105.00
31
0.0
0
LINE
8
FURN
10
7142.00
20
7130.00
30
0.0
11
7592.00
21
7130.00
31
0.0
0
LINE
8
FURN
10
7592.00
20
7130.00
30
0.0
11
7592.00
21
6730.00
31
0.0
0
LINE
8
FURN
10
7592.00
20
6730.00
30
0.0
11
7142.00
21
6730.00
31
0.0
0
LINE
8
FURN
10
7142.00
20
6730.00
30
0.0
11
7142.00
21
7130.00
31
0.0
0
TEXT
8
FURN-TXT
10
7367.00
20
6930.00
30
0.0
40
130.00
1
床头柜
50
0.0
72
1
73
2
11
7367.00
21
6930.00
31
0.0
0
LINE
8
FURN
10
9482.00
20
7130.00
30
0.0
11
9932.00
21
7130.00
31
0.0
0
LINE
8
FURN
10
9932.00
20
7130.00
30
0.0
11
9932.00
21
6730.00
31
0.0
0
LINE
8
FURN
10
9932.00
20
6730.00
30
0.0
11
9482.00
21
6730.00
31
0.0
0
LINE
8
FURN
10
9482.00
20
6730.00
30
0.0
11
9482.00
21
7130.00
31
0.0
0
TEXT
8
FURN-TXT
10
9707.00
20
6930.00
30
0.0
40
130.00
1
床头柜
50
0.0
72
1
73
2
11
9707.00
21
6930.00
31
0.0
0
LINE
8
FURN
10
300.00
20
2900.00
30
0.0
11
300.00
21
5550.00
31
0.0
0
LINE
8
FURN
10
300.00
20
5550.00
30
0.0
11
900.00
21
5550.00
31
0.0
0
LINE
8
FURN
10
900.00
20
5550.00
30
0.0
11
900.00
21
2900.00
31
0.0
0
LINE
8
FURN
10
900.00
20
2900.00
30
0.0
11
300.00
21
2900.00
31
0.0
0
TEXT
8
FURN-TXT
10
600.00
20
4225.00
30
0.0
40
130.00
1
橱柜台面
50
0.0
72
1
73
2
11
600.00
21
4225.00
31
0.0
0
LINE
8
FURN
10
300.00
20
5550.00
30
0.0
11
1340.00
21
5550.00
31
0.0
0
LINE
8
FURN
10
1340.00
20
5550.00
30
0.0
11
1340.00
21
4950.00
31
0.0
0
LINE
8
FURN
10
1340.00
20
4950.00
30
0.0
11
300.00
21
4950.00
31
0.0
0
LINE
8
FURN
10
300.00
20
4950.00
30
0.0
11
300.00
21
5550.00
31
0.0
0
TEXT
8
FURN-TXT
10
820.00
20
5250.00
30
0.0
40
130.00
1
橱柜台面
50
0.0
72
1
73
2
11
820.00
21
5250.00
31
0.0
0
LINE
8
FURN
10
300.00
20
4434.00
30
0.0
11
300.00
21
5234.00
31
0.0
0
LINE
8
FURN
10
300.00
20
5234.00
30
0.0
11
750.00
21
5234.00
31
0.0
0
LINE
8
FURN
10
750.00
20
5234.00
30
0.0
11
750.00
21
4434.00
31
0.0
0
LINE
8
FURN
10
750.00
20
4434.00
30
0.0
11
300.00
21
4434.00
31
0.0
0
TEXT
8
FURN-TXT
10
525.00
20
4834.00
30
0.0
40
130.00
1
水槽
50
0.0
72
1
73
2
11
525.00
21
4834.00
31
0.0
0
LINE
8
FURN
10
300.00
20
3241.00
30
0.0
11
300.00
21
3991.00
31
0.0
0
LINE
8
FURN
10
300.00
20
3991.00
30
0.0
11
750.00
21
3991.00
31
0.0
0
LINE
8
FURN
10
750.00
20
3991.00
30
0.0
11
750.00
21
3241.00
31
0.0
0
LINE
8
FURN
10
750.00
20
3241.00
30
0.0
11
300.00
21
3241.00
31
0.0
0
TEXT
8
FURN-TXT
10
525.00
20
3616.00
30
0.0
40
130.00
1
燃气灶
50
0.0
72
1
73
2
11
525.00
21
3616.00
31
0.0
0
LINE
8
FURN
10
1660.00
20
5550.00
30
0.0
11
2360.00
21
5550.00
31
0.0
0
LINE
8
FURN
10
2360.00
20
5550.00
30
0.0
11
2360.00
21
4850.00
31
0.0
0
LINE
8
FURN
10
2360.00
20
4850.00
30
0.0
11
1660.00
21
4850.00
31
0.0
0
LINE
8
FURN
10
1660.00
20
4850.00
30
0.0
11
1660.00
21
5550.00
31
0.0
0
TEXT
8
FURN-TXT
10
2010.00
20
5200.00
30
0.0
40
130.00
1
冰箱
50
0.0
72
1
73
2
11
2010.00
21
5200.00
31
0.0
0
LINE
8
FURN
10
2840.00
20
4700.00
30
0.0
11
4640.00
21
4700.00
31
0.0
0
LINE
8
FURN
10
4640.00
20
4700.00
30
0.0
11
4640.00
21
3750.00
31
0.0
0
LINE
8
FURN
10
4640.00
20
3750.00
30
0.0
11
2840.00
21
3750.00
31
0.0
0
LINE
8
FURN
10
2840.00
20
3750.00
30
0.0
11
2840.00
21
4700.00
31
0.0
0
TEXT
8
FURN-TXT
10
3740.00
20
4225.00
30
0.0
40
130.00
1
餐桌
50
0.0
72
1
73
2
11
3740.00
21
4225.00
31
0.0
0
LINE
8
FURN
10
3515.00
20
4700.00
30
0.0
11
3065.00
21
4700.00
31
0.0
0
LINE
8
FURN
10
3065.00
20
4700.00
30
0.0
11
3065.00
21
5180.00
31
0.0
0
LINE
8
FURN
10
3065.00
20
5180.00
30
0.0
11
3515.00
21
5180.00
31
0.0
0
LINE
8
FURN
10
3515.00
20
5180.00
30
0.0
11
3515.00
21
4700.00
31
0.0
0
TEXT
8
FURN-TXT
10
3290.00
20
4940.00
30
0.0
40
130.00
1
餐椅
50
0.0
72
1
73
2
11
3290.00
21
4940.00
31
0.0
0
LINE
8
FURN
10
4415.00
20
4700.00
30
0.0
11
3965.00
21
4700.00
31
0.0
0
LINE
8
FURN
10
3965.00
20
4700.00
30
0.0
11
3965.00
21
5180.00
31
0.0
0
LINE
8
FURN
10
3965.00
20
5180.00
30
0.0
11
4415.00
21
5180.00
31
0.0
0
LINE
8
FURN
10
4415.00
20
5180.00
30
0.0
11
4415.00
21
4700.00
31
0.0
0
TEXT
8
FURN-TXT
10
4190.00
20
4940.00
30
0.0
40
130.00
1
餐椅
50
0.0
72
1
73
2
11
4190.00
21
4940.00
31
0.0
0
LINE
8
FURN
10
3065.00
20
3750.00
30
0.0
11
3515.00
21
3750.00
31
0.0
0
LINE
8
FURN
10
3515.00
20
3750.00
30
0.0
11
3515.00
21
3270.00
31
0.0
0
LINE
8
FURN
10
3515.00
20
3270.00
30
0.0
11
3065.00
21
3270.00
31
0.0
0
LINE
8
FURN
10
3065.00
20
3270.00
30
0.0
11
3065.00
21
3750.00
31
0.0
0
TEXT
8
FURN-TXT
10
3290.00
20
3510.00
30
0.0
40
130.00
1
餐椅
50
0.0
72
1
73
2
11
3290.00
21
3510.00
31
0.0
0
LINE
8
FURN
10
3965.00
20
3750.00
30
0.0
11
4415.00
21
3750.00
31
0.0
0
LINE
8
FURN
10
4415.00
20
3750.00
30
0.0
11
4415.00
21
3270.00
31
0.0
0
LINE
8
FURN
10
4415.00
20
3270.00
30
0.0
11
3965.00
21
3270.00
31
0.0
0
LINE
8
FURN
10
3965.00
20
3270.00
30
0.0
11
3965.00
21
3750.00
31
0.0
0
TEXT
8
FURN-TXT
10
4190.00
20
3510.00
30
0.0
40
130.00
1
餐椅
50
0.0
72
1
73
2
11
4190.00
21
3510.00
31
0.0
0
LINE
8
FURN
10
2940.00
20
5550.00
30
0.0
11
4540.00
21
5550.00
31
0.0
0
LINE
8
FURN
10
4540.00
20
5550.00
30
0.0
11
4540.00
21
5150.00
31
0.0
0
LINE
8
FURN
10
4540.00
20
5150.00
30
0.0
11
2940.00
21
5150.00
31
0.0
0
LINE
8
FURN
10
2940.00
20
5150.00
30
0.0
11
2940.00
21
5550.00
31
0.0
0
TEXT
8
FURN-TXT
10
3740.00
20
5350.00
30
0.0
40
130.00
1
餐边柜
50
0.0
72
1
73
2
11
3740.00
21
5350.00
31
0.0
0
LINE
8
FURN
10
2670.00
20
5550.00
30
0.0
11
3370.00
21
5550.00
31
0.0
0
LINE
8
FURN
10
3370.00
20
5550.00
30
0.0
11
3370.00
21
4850.00
31
0.0
0
LINE
8
FURN
10
3370.00
20
4850.00
30
0.0
11
2670.00
21
4850.00
31
0.0
0
LINE
8
FURN
10
2670.00
20
4850.00
30
0.0
11
2670.00
21
5550.00
31
0.0
0
TEXT
8
FURN-TXT
10
3020.00
20
5200.00
30
0.0
40
130.00
1
冰箱
50
0.0
72
1
73
2
11
3020.00
21
5200.00
31
0.0
0
LINE
8
FURN
10
5260.00
20
8420.00
30
0.0
11
6400.00
21
8420.00
31
0.0
0
LINE
8
FURN
10
6400.00
20
8420.00
30
0.0
11
6400.00
21
8070.00
31
0.0
0
LINE
8
FURN
10
6400.00
20
8070.00
30
0.0
11
5260.00
21
8070.00
31
0.0
0
LINE
8
FURN
10
5260.00
20
8070.00
30
0.0
11
5260.00
21
8420.00
31
0.0
0
TEXT
8
FURN-TXT
10
5830.00
20
8245.00
30
0.0
40
130.00
1
鞋柜
50
0.0
72
1
73
2
11
5830.00
21
8245.00
31
0.0
0
LINE
8
FURN
10
5120.00
20
6085.00
30
0.0
11
5120.00
21
6585.00
31
0.0
0
LINE
8
FURN
10
5120.00
20
6585.00
30
0.0
11
5620.00
21
6585.00
31
0.0
0
LINE
8
FURN
10
5620.00
20
6585.00
30
0.0
11
5620.00
21
6085.00
31
0.0
0
LINE
8
FURN
10
5620.00
20
6085.00
30
0.0
11
5120.00
21
6085.00
31
0.0
0
TEXT
8
FURN-TXT
10
5370.00
20
6335.00
30
0.0
40
130.00
1
绿植
50
0.0
72
1
73
2
11
5370.00
21
6335.00
31
0.0
0
LINE
8
FURN
10
9185.00
20
300.00
30
0.0
11
6385.00
21
300.00
31
0.0
0
LINE
8
FURN
10
6385.00
20
300.00
30
0.0
11
6385.00
21
1200.00
31
0.0
0
LINE
8
FURN
10
6385.00
20
1200.00
30
0.0
11
9185.00
21
1200.00
31
0.0
0
LINE
8
FURN
10
9185.00
20
1200.00
30
0.0
11
9185.00
21
300.00
31
0.0
0
TEXT
8
FURN-TXT
10
7785.00
20
750.00
30
0.0
40
130.00
1
三人沙发
50
0.0
72
1
73
2
11
7785.00
21
750.00
31
0.0
0
LINE
8
FURN
10
6585.00
20
4130.00
30
0.0
11
8985.00
21
4130.00
31
0.0
0
LINE
8
FURN
10
8985.00
20
4130.00
30
0.0
11
8985.00
21
3730.00
31
0.0
0
LINE
8
FURN
10
8985.00
20
3730.00
30
0.0
11
6585.00
21
3730.00
31
0.0
0
LINE
8
FURN
10
6585.00
20
3730.00
30
0.0
11
6585.00
21
4130.00
31
0.0
0
TEXT
8
FURN-TXT
10
7785.00
20
3930.00
30
0.0
40
130.00
1
电视柜
50
0.0
72
1
73
2
11
7785.00
21
3930.00
31
0.0
0
LINE
8
FURN
10
8385.00
20
1390.00
30
0.0
11
7185.00
21
1390.00
31
0.0
0
LINE
8
FURN
10
7185.00
20
1390.00
30
0.0
11
7185.00
21
2040.00
31
0.0
0
LINE
8
FURN
10
7185.00
20
2040.00
30
0.0
11
8385.00
21
2040.00
31
0.0
0
LINE
8
FURN
10
8385.00
20
2040.00
30
0.0
11
8385.00
21
1390.00
31
0.0
0
TEXT
8
FURN-TXT
10
7785.00
20
1715.00
30
0.0
40
130.00
1
茶几
50
0.0
72
1
73
2
11
7785.00
21
1715.00
31
0.0
0
LINE
8
FURN
10
6585.00
20
3115.00
30
0.0
11
8985.00
21
3115.00
31
0.0
0
LINE
8
FURN
10
8985.00
20
3115.00
30
0.0
11
8985.00
21
1315.00
31
0.0
0
LINE
8
FURN
10
8985.00
20
1315.00
30
0.0
11
6585.00
21
1315.00
31
0.0
0
LINE
8
FURN
10
6585.00
20
1315.00
30
0.0
11
6585.00
21
3115.00
31
0.0
0
TEXT
8
FURN-TXT
10
7785.00
20
2215.00
30
0.0
40
130.00
1
地毯
50
0.0
72
1
73
2
11
7785.00
21
2215.00
31
0.0
0
LINE
8
FURN
10
10210.00
20
2640.00
30
0.0
11
10210.00
21
1790.00
31
0.0
0
LINE
8
FURN
10
10210.00
20
1790.00
30
0.0
11
9360.00
21
1790.00
31
0.0
0
LINE
8
FURN
10
9360.00
20
1790.00
30
0.0
11
9360.00
21
2640.00
31
0.0
0
LINE
8
FURN
10
9360.00
20
2640.00
30
0.0
11
10210.00
21
2640.00
31
0.0
0
TEXT
8
FURN-TXT
10
9785.00
20
2215.00
30
0.0
40
130.00
1
单人沙发
50
0.0
72
1
73
2
11
9785.00
21
2215.00
31
0.0
0
LINE
8
FURN
10
9443.00
20
4130.00
30
0.0
11
9943.00
21
4130.00
31
0.0
0
LINE
8
FURN
10
9943.00
20
4130.00
30
0.0
11
9943.00
21
3630.00
31
0.0
0
LINE
8
FURN
10
9943.00
20
3630.00
30
0.0
11
9443.00
21
3630.00
31
0.0
0
LINE
8
FURN
10
9443.00
20
3630.00
30
0.0
11
9443.00
21
4130.00
31
0.0
0
TEXT
8
FURN-TXT
10
9693.00
20
3880.00
30
0.0
40
130.00
1
绿植
50
0.0
72
1
73
2
11
9693.00
21
3880.00
31
0.0
0
LINE
8
FURN
10
11070.00
20
2565.00
30
0.0
11
11770.00
21
2565.00
31
0.0
0
LINE
8
FURN
10
11770.00
20
2565.00
30
0.0
11
11770.00
21
1865.00
31
0.0
0
LINE
8
FURN
10
11770.00
20
1865.00
30
0.0
11
11070.00
21
1865.00
31
0.0
0
LINE
8
FURN
10
11070.00
20
1865.00
30
0.0
11
11070.00
21
2565.00
31
0.0
0
TEXT
8
FURN-TXT
10
11420.00
20
2215.00
30
0.0
40
130.00
1
茶桌
50
0.0
72
1
73
2
11
11420.00
21
2215.00
31
0.0
0
LINE
8
FURN
10
11770.00
20
3465.00
30
0.0
11
11770.00
21
2765.00
31
0.0
0
LINE
8
FURN
10
11770.00
20
2765.00
30
0.0
11
11070.00
21
2765.00
31
0.0
0
LINE
8
FURN
10
11070.00
20
2765.00
30
0.0
11
11070.00
21
3465.00
31
0.0
0
LINE
8
FURN
10
11070.00
20
3465.00
30
0.0
11
11770.00
21
3465.00
31
0.0
0
TEXT
8
FURN-TXT
10
11420.00
20
3115.00
30
0.0
40
130.00
1
休闲椅
50
0.0
72
1
73
2
11
11420.00
21
3115.00
31
0.0
0
LINE
8
FURN
10
11070.00
20
965.00
30
0.0
11
11070.00
21
1665.00
31
0.0
0
LINE
8
FURN
10
11070.00
20
1665.00
30
0.0
11
11770.00
21
1665.00
31
0.0
0
LINE
8
FURN
10
11770.00
20
1665.00
30
0.0
11
11770.00
21
965.00
31
0.0
0
LINE
8
FURN
10
11770.00
20
965.00
30
0.0
11
11070.00
21
965.00
31
0.0
0
TEXT
8
FURN-TXT
10
11420.00
20
1315.00
30
0.0
40
130.00
1
休闲椅
50
0.0
72
1
73
2
11
11420.00
21
1315.00
31
0.0
0
LINE
8
FURN
10
11170.00
20
4130.00
30
0.0
11
11670.00
21
4130.00
31
0.0
0
LINE
8
FURN
10
11670.00
20
4130.00
30
0.0
11
11670.00
21
3630.00
31
0.0
0
LINE
8
FURN
10
11670.00
20
3630.00
30
0.0
11
11170.00
21
3630.00
31
0.0
0
LINE
8
FURN
10
11170.00
20
3630.00
30
0.0
11
11170.00
21
4130.00
31
0.0
0
TEXT
8
FURN-TXT
10
11420.00
20
3880.00
30
0.0
40
130.00
1
绿植
50
0.0
72
1
73
2
11
11420.00
21
3880.00
31
0.0
0
LINE
8
FURN
10
10570.00
20
8835.00
30
0.0
11
10570.00
21
9355.00
31
0.0
0
LINE
8
FURN
10
10570.00
20
9355.00
30
0.0
11
11210.00
21
9355.00
31
0.0
0
LINE
8
FURN
10
11210.00
20
9355.00
30
0.0
11
11210.00
21
8835.00
31
0.0
0
LINE
8
FURN
10
11210.00
20
8835.00
30
0.0
11
10570.00
21
8835.00
31
0.0
0
TEXT
8
FURN-TXT
10
10890.00
20
9095.00
30
0.0
40
130.00
1
飘窗垫
50
0.0
72
1
73
2
11
10890.00
21
9095.00
31
0.0
0
LINE
8
FURN
10
11100.00
20
8210.00
30
0.0
11
10680.00
21
8210.00
31
0.0
0
LINE
8
FURN
10
10680.00
20
8210.00
30
0.0
11
10680.00
21
8630.00
31
0.0
0
LINE
8
FURN
10
10680.00
20
8630.00
30
0.0
11
11100.00
21
8630.00
31
0.0
0
LINE
8
FURN
10
11100.00
20
8630.00
30
0.0
11
11100.00
21
8210.00
31
0.0
0
TEXT
8
FURN-TXT
10
10890.00
20
8420.00
30
0.0
40
130.00
1
绿植
50
0.0
72
1
73
2
11
10890.00
21
8420.00
31
0.0
0
LINE
8
FURN
10
10570.00
20
5542.00
30
0.0
11
10570.00
21
6062.00
31
0.0
0
LINE
8
FURN
10
10570.00
20
6062.00
30
0.0
11
11210.00
21
6062.00
31
0.0
0
LINE
8
FURN
10
11210.00
20
6062.00
30
0.0
11
11210.00
21
5542.00
31
0.0
0
LINE
8
FURN
10
11210.00
20
5542.00
30
0.0
11
10570.00
21
5542.00
31
0.0
0
TEXT
8
FURN-TXT
10
10890.00
20
5802.00
30
0.0
40
130.00
1
飘窗垫
50
0.0
72
1
73
2
11
10890.00
21
5802.00
31
0.0
0
LINE
8
FURN
10
11100.00
20
5075.00
30
0.0
11
10680.00
21
5075.00
31
0.0
0
LINE
8
FURN
10
10680.00
20
5075.00
30
0.0
11
10680.00
21
5495.00
31
0.0
0
LINE
8
FURN
10
10680.00
20
5495.00
30
0.0
11
11100.00
21
5495.00
31
0.0
0
LINE
8
FURN
10
11100.00
20
5495.00
30
0.0
11
11100.00
21
5075.00
31
0.0
0
TEXT
8
FURN-TXT
10
10890.00
20
5285.00
30
0.0
40
130.00
1
绿植
50
0.0
72
1
73
2
11
10890.00
21
5285.00
31
0.0
0
LINE
8
FURN
10
7775.00
20
10740.00
30
0.0
11
9575.00
21
10740.00
31
0.0
0
LINE
8
FURN
10
9575.00
20
10740.00
30
0.0
11
9575.00
21
8690.00
31
0.0
0
LINE
8
FURN
10
9575.00
20
8690.00
30
0.0
11
7775.00
21
8690.00
31
0.0
0
LINE
8
FURN
10
7775.00
20
8690.00
30
0.0
11
7775.00
21
10740.00
31
0.0
0
TEXT
8
FURN-TXT
10
8675.00
20
9715.00
30
0.0
40
130.00
1
双人床
50
0.0
72
1
73
2
11
8675.00
21
9715.00
31
0.0
0
LINE
8
FURN
10
7280.00
20
10740.00
30
0.0
11
7730.00
21
10740.00
31
0.0
0
LINE
8
FURN
10
7730.00
20
10740.00
30
0.0
11
7730.00
21
10340.00
31
0.0
0
LINE
8
FURN
10
7730.00
20
10340.00
30
0.0
11
7280.00
21
10340.00
31
0.0
0
LINE
8
FURN
10
7280.00
20
10340.00
30
0.0
11
7280.00
21
10740.00
31
0.0
0
TEXT
8
FURN-TXT
10
7505.00
20
10540.00
30
0.0
40
130.00
1
床头柜
50
0.0
72
1
73
2
11
7505.00
21
10540.00
31
0.0
0
LINE
8
FURN
10
9620.00
20
10740.00
30
0.0
11
10070.00
21
10740.00
31
0.0
0
LINE
8
FURN
10
10070.00
20
10740.00
30
0.0
11
10070.00
21
10340.00
31
0.0
0
LINE
8
FURN
10
10070.00
20
10340.00
30
0.0
11
9620.00
21
10340.00
31
0.0
0
LINE
8
FURN
10
9620.00
20
10340.00
30
0.0
11
9620.00
21
10740.00
31
0.0
0
TEXT
8
FURN-TXT
10
9845.00
20
10540.00
30
0.0
40
130.00
1
床头柜
50
0.0
72
1
73
2
11
9845.00
21
10540.00
31
0.0
0
LINE
8
FURN
10
10360.00
20
7490.00
30
0.0
11
6990.00
21
7490.00
31
0.0
0
LINE
8
FURN
10
6990.00
20
7490.00
30
0.0
11
6990.00
21
8090.00
31
0.0
0
LINE
8
FURN
10
6990.00
20
8090.00
30
0.0
11
10360.00
21
8090.00
31
0.0
0
LINE
8
FURN
10
10360.00
20
8090.00
30
0.0
11
10360.00
21
7490.00
31
0.0
0
TEXT
8
FURN-TXT
10
8675.00
20
7790.00
30
0.0
40
130.00
1
衣柜
50
0.0
72
1
73
2
11
8675.00
21
7790.00
31
0.0
0
TEXT
8
ROOM-TXT
10
8675.00
20
8380.00
30
0.0
40
240.00
1
主卧室
50
0.0
72
1
73
2
11
8675.00
21
8380.00
31
0.0
0
TEXT
8
ROOM-TXT
10
8675.00
20
8040.00
30
0.0
40
170.00
1
12.4m²
50
0.0
72
1
73
2
11
8675.00
21
8040.00
31
0.0
0
TEXT
8
ROOM-TXT
10
6220.00
20
9020.00
30
0.0
40
240.00
1
主卫浴
50
0.0
72
1
73
2
11
6220.00
21
9020.00
31
0.0
0
TEXT
8
ROOM-TXT
10
6220.00
20
8680.00
30
0.0
40
170.00
1
3.2m²
50
0.0
72
1
73
2
11
6220.00
21
8680.00
31
0.0
0
TEXT
8
ROOM-TXT
10
3620.00
20
8470.00
30
0.0
40
240.00
1
小孩房
50
0.0
72
1
73
2
11
3620.00
21
8470.00
31
0.0
0
TEXT
8
ROOM-TXT
10
3620.00
20
8130.00
30
0.0
40
170.00
1
9.3m²
50
0.0
72
1
73
2
11
3620.00
21
8130.00
31
0.0
0
TEXT
8
ROOM-TXT
10
4000.00
20
6180.00
30
0.0
40
240.00
1
客卫浴
50
0.0
72
1
73
2
11
4000.00
21
6180.00
31
0.0
0
TEXT
8
ROOM-TXT
10
4000.00
20
5840.00
30
0.0
40
170.00
1
2.9m²
50
0.0
72
1
73
2
11
4000.00
21
5840.00
31
0.0
0
TEXT
8
ROOM-TXT
10
1490.00
20
6470.00
30
0.0
40
240.00
1
洗衣阳台
50
0.0
72
1
73
2
11
1490.00
21
6470.00
31
0.0
0
TEXT
8
ROOM-TXT
10
1490.00
20
6130.00
30
0.0
40
170.00
1
2.9m²
50
0.0
72
1
73
2
11
1490.00
21
6130.00
31
0.0
0
TEXT
8
ROOM-TXT
10
9090.00
20
5950.00
30
0.0
40
240.00
1
子女房
50
0.0
72
1
73
2
11
9090.00
21
5950.00
31
0.0
0
TEXT
8
ROOM-TXT
10
9090.00
20
5610.00
30
0.0
40
170.00
1
10.9m²
50
0.0
72
1
73
2
11
9090.00
21
5610.00
31
0.0
0
TEXT
8
ROOM-TXT
10
1540.00
20
4300.00
30
0.0
40
240.00
1
厨房
50
0.0
72
1
73
2
11
1540.00
21
4300.00
31
0.0
0
TEXT
8
ROOM-TXT
10
1540.00
20
3960.00
30
0.0
40
170.00
1
6.0m²
50
0.0
72
1
73
2
11
1540.00
21
3960.00
31
0.0
0
TEXT
8
ROOM-TXT
10
4140.00
20
5280.00
30
0.0
40
240.00
1
餐厅
50
0.0
72
1
73
2
11
4140.00
21
5280.00
31
0.0
0
TEXT
8
ROOM-TXT
10
4140.00
20
4940.00
30
0.0
40
170.00
1
7.0m²
50
0.0
72
1
73
2
11
4140.00
21
4940.00
31
0.0
0
TEXT
8
ROOM-TXT
10
5690.00
20
6350.00
30
0.0
40
240.00
1
过道
50
0.0
72
1
73
2
11
5690.00
21
6350.00
31
0.0
0
TEXT
8
ROOM-TXT
10
5690.00
20
6010.00
30
0.0
40
170.00
1
5.7m²
50
0.0
72
1
73
2
11
5690.00
21
6010.00
31
0.0
0
TEXT
8
ROOM-TXT
10
7840.00
20
3240.00
30
0.0
40
240.00
1
客厅
50
0.0
72
1
73
2
11
7840.00
21
3240.00
31
0.0
0
TEXT
8
ROOM-TXT
10
7840.00
20
2900.00
30
0.0
40
170.00
1
21.5m²
50
0.0
72
1
73
2
11
7840.00
21
2900.00
31
0.0
0
TEXT
8
ROOM-TXT
10
11420.00
20
1350.00
30
0.0
40
240.00
1
休闲阳台
50
0.0
72
1
73
2
11
11420.00
21
1350.00
31
0.0
0
TEXT
8
ROOM-TXT
10
11420.00
20
1010.00
30
0.0
40
170.00
1
5.3m²
50
0.0
72
1
73
2
11
11420.00
21
1010.00
31
0.0
0
TEXT
8
ROOM-TXT
10
10894.00
20
9097.00
30
0.0
40
240.00
1
主卧飘窗
50
0.0
72
1
73
2
11
10894.00
21
9097.00
31
0.0
0
TEXT
8
ROOM-TXT
10
10894.00
20
8757.00
30
0.0
40
170.00
1
1.4m²
50
0.0
72
1
73
2
11
10894.00
21
8757.00
31
0.0
0
TEXT
8
ROOM-TXT
10
10895.00
20
5802.00
30
0.0
40
240.00
1
子女房飘窗
50
0.0
72
1
73
2
11
10895.00
21
5802.00
31
0.0
0
TEXT
8
ROOM-TXT
10
10895.00
20
5462.00
30
0.0
40
170.00
1
1.2m²
50
0.0
72
1
73
2
11
10895.00
21
5462.00
31
0.0
0
TEXT
8
TITLE
10
0.00
20
-640.00
30
0.0
40
330.00
1
三室两厅两卫 · 装修设计平面图（单位 mm · 1:1）
50
0.0
72
1
73
2
11
0.00
21
-640.00
31
0.0
0
TEXT
8
TITLE
10
0.00
20
-1080.00
30
0.0
40
210.00
1
导出时间 2026/10/5 16:26:45 · DXF 2007 · 中文为 UTF-8，CAD 里可另存为 DWG
50
0.0
72
1
73
2
11
0.00
21
-1080.00
31
0.0
0
ENDSEC
0
EOF
